<mxfile host="app.diagrams.net" modified="2021-06-15T08:02:08.394Z" agent="5.0 (Macintosh; Intel Mac OS X 10_13_6) AppleWebKit/537.36 (KHTML, like Gecko) Chrome/90.0.4430.212 Safari/537.36" etag="c0_VznKHPClD_F1Ug68S" version="14.7.8" type="github">
  <diagram id="Kf_z58RGfanqmnyDjkTk" name="第 1 页">
    <mxGraphModel dx="946" dy="646" grid="0" gridSize="10" guides="1" tooltips="1" connect="1" arrows="1" fold="1" page="0" pageScale="1" pageWidth="827" pageHeight="1169" math="0" shadow="0">
      <root>
        <mxCell id="0" />
        <mxCell id="1" parent="0" />
        <mxCell id="nZ7gTKl5lKUHGhRoU8_J-2" value="" style="rounded=0;whiteSpace=wrap;html=1;comic=1;sketch=0;fontSize=16;fontFamily=Comic Sans MS;fillColor=#dae8fc;strokeColor=#6c8ebf;" vertex="1" parent="1">
          <mxGeometry x="180" y="170" width="250" height="190" as="geometry" />
        </mxCell>
        <mxCell id="nZ7gTKl5lKUHGhRoU8_J-13" style="edgeStyle=orthogonalEdgeStyle;curved=1;sketch=1;orthogonalLoop=1;jettySize=auto;html=1;exitX=0.25;exitY=0;exitDx=0;exitDy=0;entryX=0;entryY=0.75;entryDx=0;entryDy=0;fontFamily=Comic Sans MS;fontSize=16;" edge="1" parent="1" source="nZ7gTKl5lKUHGhRoU8_J-3" target="nZ7gTKl5lKUHGhRoU8_J-7">
          <mxGeometry relative="1" as="geometry" />
        </mxCell>
        <mxCell id="nZ7gTKl5lKUHGhRoU8_J-3" value="腾讯" style="rounded=0;whiteSpace=wrap;html=1;comic=1;sketch=0;fontSize=16;fontFamily=Comic Sans MS;fillColor=#f5f5f5;strokeColor=#666666;fontColor=#333333;" vertex="1" parent="1">
          <mxGeometry x="180" y="380" width="250" height="90" as="geometry" />
        </mxCell>
        <mxCell id="nZ7gTKl5lKUHGhRoU8_J-10" style="edgeStyle=orthogonalEdgeStyle;curved=1;sketch=1;orthogonalLoop=1;jettySize=auto;html=1;exitX=1;exitY=0.5;exitDx=0;exitDy=0;entryX=1;entryY=0.5;entryDx=0;entryDy=0;fontFamily=Comic Sans MS;fontSize=16;" edge="1" parent="1" source="nZ7gTKl5lKUHGhRoU8_J-4" target="nZ7gTKl5lKUHGhRoU8_J-7">
          <mxGeometry relative="1" as="geometry" />
        </mxCell>
        <mxCell id="nZ7gTKl5lKUHGhRoU8_J-4" value="打车" style="rounded=0;whiteSpace=wrap;html=1;comic=1;sketch=0;fontSize=16;fontFamily=Comic Sans MS;fillColor=#d5e8d4;strokeColor=#82b366;" vertex="1" parent="1">
          <mxGeometry x="217.5" y="210" width="172.5" height="50" as="geometry" />
        </mxCell>
        <mxCell id="nZ7gTKl5lKUHGhRoU8_J-5" value="美团" style="text;html=1;strokeColor=none;fillColor=none;align=center;verticalAlign=middle;whiteSpace=wrap;rounded=0;comic=1;sketch=0;fontFamily=Comic Sans MS;fontSize=16;" vertex="1" parent="1">
          <mxGeometry x="285" y="180" width="40" height="20" as="geometry" />
        </mxCell>
        <mxCell id="nZ7gTKl5lKUHGhRoU8_J-9" style="edgeStyle=orthogonalEdgeStyle;curved=1;sketch=1;orthogonalLoop=1;jettySize=auto;html=1;exitX=0;exitY=0.5;exitDx=0;exitDy=0;entryX=0;entryY=0.5;entryDx=0;entryDy=0;fontFamily=Comic Sans MS;fontSize=16;" edge="1" parent="1" source="nZ7gTKl5lKUHGhRoU8_J-7" target="nZ7gTKl5lKUHGhRoU8_J-4">
          <mxGeometry relative="1" as="geometry" />
        </mxCell>
        <mxCell id="nZ7gTKl5lKUHGhRoU8_J-14" style="edgeStyle=orthogonalEdgeStyle;curved=1;sketch=1;orthogonalLoop=1;jettySize=auto;html=1;exitX=1;exitY=0.75;exitDx=0;exitDy=0;entryX=0.75;entryY=0;entryDx=0;entryDy=0;fontFamily=Comic Sans MS;fontSize=16;" edge="1" parent="1" source="nZ7gTKl5lKUHGhRoU8_J-7" target="nZ7gTKl5lKUHGhRoU8_J-3">
          <mxGeometry relative="1" as="geometry" />
        </mxCell>
        <mxCell id="nZ7gTKl5lKUHGhRoU8_J-7" value="地图" style="rounded=0;whiteSpace=wrap;html=1;comic=1;sketch=0;fontSize=16;fontFamily=Comic Sans MS;fillColor=#ffe6cc;strokeColor=#d79b00;" vertex="1" parent="1">
          <mxGeometry x="217.5" y="290" width="172.5" height="50" as="geometry" />
        </mxCell>
      </root>
    </mxGraphModel>
  </diagram>
</mxfile>
